<?xml version="1.0" encoding="utf-8"?>
<!-- Generator: Adobe Illustrator 21.1.0, SVG Export Plug-In . SVG Version: 6.00 Build 0)  -->
<svg version="1.1" id="Layer_1" xmlns="http://www.w3.org/2000/svg" xmlns:xlink="http://www.w3.org/1999/xlink" x="0px" y="0px"
	 viewBox="0 0 118.7 19" style="enable-background:new 0 0 118.7 19;" xml:space="preserve">
<style type="text/css">
	.st0{fill:#2F7492;}
	.st1{fill:#E0600E;}
	.st2{font-family:'ArialMT';}
	.st3{font-size:4px;}
</style>
<g>
	<path class="st0" d="M16.5,9.2V15c0,0-2.3,3-6.9,3C4.7,18,1,14.3,1,9.7C1,5,4.7,1.3,9.5,1.3c4.4,0,6.6,3.1,6.6,3.1l-1.6,1.6
		c0,0-1.6-2.4-5-2.4s-6,2.7-6,6c0,3.4,2.7,6,6,6c3,0,4.4-1.6,4.4-1.6v-2.5h-3.1V9.2H16.5z"/>
	<path class="st0" d="M27.5,1.3c4.9,0,8.6,3.7,8.6,8.3c0,4.6-3.7,8.3-8.6,8.3s-8.6-3.7-8.6-8.3C18.9,5,22.6,1.3,27.5,1.3z
		 M27.5,15.7c3.4,0,6-2.7,6-6c0-3.4-2.7-6-6-6s-6,2.7-6,6C21.5,13,24.1,15.7,27.5,15.7z"/>
	<path class="st0" d="M36.4,1.6h2.7l5,13l5-13h2.7l-6.4,16.2h-2.5L36.4,1.6z"/>
</g>
<path class="st1" d="M64.2,17.8l6.2-16.2H73l-5.3,13.9h7.9l-0.9,2.3H64.2z"/>
<path class="st1" d="M90.2,15.4l-0.9,2.3H77.6l6.2-16.2h11.5l-0.9,2.3h-8.9l-1.6,4.3h7.1L90,10.5H83l-1.9,5H90.2z"/>
<polygon class="st1" points="66.3,3.9 67.2,1.6 55.8,1.6 54.9,3.9 "/>
<polygon class="st1" points="53.2,8.4 49.6,17.8 52.2,17.8 54.9,10.7 61.8,10.7 62.7,8.4 "/>
<path class="st1" d="M112.9,2.4c1-0.3,4.8-0.9,4.8-0.9h-4.8h-3h0l-6.2,5.7l-1.9-5.7h-3l2.6,7.8l-9.3,8.5h3l7-6.4l2.1,6.4h3l-2.8-8.5
	l6.2-5.6C111.1,3.3,111.8,2.8,112.9,2.4z"/>
<text transform="matrix(1 0 0 1 109.4495 17.7629)" class="st1 st2 st3">TM</text>
</svg>
